<?xml version="1.0" standalone="no"?>
<!DOCTYPE svg PUBLIC "-//W3C//DTD SVG 20010904//EN"
 "http://www.w3.org/TR/2001/REC-SVG-20010904/DTD/svg10.dtd">
<svg version="1.0" xmlns="http://www.w3.org/2000/svg"
 width="1024.000000pt" height="1024.000000pt" viewBox="0 0 1024.000000 1024.000000"
 preserveAspectRatio="xMidYMid meet">
<metadata>
Created by potrace 1.14, written by Peter Selinger 2001-2017
</metadata>
<g transform="translate(0.000000,1024.000000) scale(0.100000,-0.100000)"
fill="#000000" stroke="none">
<path d="M664 6466 c-17 -8 -44 -31 -60 -52 l-29 -37 0 -791 0 -791 28 -97
c38 -131 108 -258 197 -355 43 -46 146 -130 170 -138 11 -3 20 -11 20 -16 0
-5 5 -9 10 -9 6 0 34 -11 63 -26 157 -76 373 -95 553 -48 54 14 103 29 109 33
5 5 31 16 58 26 26 10 47 22 47 26 0 5 6 9 13 9 12 0 118 83 173 136 39 37
134 163 134 177 0 6 6 18 13 26 22 25 66 162 77 237 21 147 8 296 -35 414 -27
74 -68 156 -90 180 -8 9 -15 20 -15 24 0 15 -112 132 -166 174 -16 12 -42 33
-59 46 -174 137 -505 176 -754 89 -42 -14 -83 -31 -91 -38 -8 -6 -28 -17 -45
-25 -16 -8 -32 -17 -35 -20 -3 -3 -17 -13 -32 -23 l-27 -17 -3 398 -3 399 -29
37 c-47 62 -123 82 -192 52z m846 -1035 c118 -26 183 -62 266 -145 51 -51 81
-93 109 -149 34 -71 39 -88 43 -176 5 -114 -6 -175 -49 -267 -37 -78 -127
-174 -204 -218 -75 -43 -189 -76 -258 -76 -76 0 -194 33 -266 73 -70 40 -160
130 -187 187 -12 25 -29 61 -38 80 -30 61 -41 171 -28 262 6 44 15 86 20 92 5
6 15 27 22 46 36 90 137 196 234 245 51 26 180 61 231 64 11 0 58 -8 105 -18z"/>
<path d="M5940 6472 c-42 -19 -72 -49 -90 -89 -20 -45 -20 -68 -20 -1103 l0
-1058 26 -50 c29 -57 82 -92 138 -92 56 0 125 50 146 105 6 15 10 148 10 310
l0 285 28 16 c15 10 52 34 84 56 31 21 59 38 64 38 8 0 28 -21 124 -130 36
-40 75 -84 87 -97 12 -14 64 -72 115 -130 51 -58 104 -118 118 -133 14 -15 54
-60 90 -101 116 -132 174 -191 202 -205 41 -21 96 -17 143 11 34 19 47 36 65
80 l22 55 -19 46 c-16 37 -146 195 -273 334 -14 15 -54 60 -90 100 -36 41 -76
85 -90 100 -13 14 -59 66 -102 117 -42 51 -87 102 -98 113 l-21 21 81 54 c44
29 84 55 88 57 10 4 203 130 289 189 40 27 75 49 77 49 11 0 92 60 112 82 12
12 27 40 34 61 10 31 9 44 -6 82 -32 84 -113 128 -194 105 -34 -10 -46 -17
-180 -107 -41 -27 -79 -52 -85 -54 -19 -8 -160 -104 -163 -111 -2 -5 -8 -8
-13 -8 -5 0 -33 -16 -62 -35 -28 -20 -59 -40 -67 -45 -8 -5 -69 -45 -135 -88
-165 -109 -203 -132 -215 -132 -6 0 -10 214 -12 604 -3 596 -3 605 -24 633
-46 61 -128 90 -184 65z"/>
<path d="M7574 6462 c-17 -11 -42 -35 -55 -54 l-24 -33 0 -1095 0 -1095 25
-33 c45 -61 81 -72 239 -72 122 0 146 3 184 21 107 52 118 199 18 274 -17 13
-46 21 -88 23 l-63 4 -2 991 c-2 781 -6 991 -15 995 -7 2 -13 10 -13 17 0 7
-17 25 -37 41 -48 37 -124 44 -169 16z"/>
<path d="M3161 5739 c-320 -57 -590 -323 -656 -649 -45 -219 -5 -430 127 -661
58 -102 188 -248 266 -298 26 -17 52 -35 59 -41 7 -5 15 -10 19 -10 3 0 29
-11 57 -26 137 -68 363 -88 530 -46 95 24 178 61 253 111 25 18 52 30 58 28
12 -5 26 -30 45 -82 13 -35 69 -74 116 -82 51 -8 118 29 144 82 20 41 21 55
21 441 0 489 -8 538 -121 770 -21 45 -46 87 -54 94 -8 7 -15 18 -15 25 0 20
-161 178 -220 216 -96 62 -103 65 -200 99 -86 29 -107 33 -235 36 -77 2 -164
-1 -194 -7z m364 -415 c33 -9 67 -21 75 -28 8 -7 26 -17 40 -23 43 -19 134
-109 162 -160 63 -115 56 -289 -19 -436 -30 -60 -142 -174 -203 -206 -75 -39
-188 -71 -253 -71 -75 0 -194 32 -264 72 -64 36 -157 127 -186 182 -20 36 -22
56 -22 176 l0 135 37 75 c56 113 113 176 209 231 16 9 34 21 41 27 13 10 107
37 163 45 46 8 153 -2 220 -19z"/>
<path d="M4495 5743 c-11 -3 -33 -17 -48 -31 -60 -56 -57 -21 -57 -797 l0
-711 31 -48 c16 -27 37 -66 46 -87 12 -31 25 -43 71 -65 51 -24 59 -25 92 -14
52 19 79 39 98 74 15 27 18 81 22 456 4 379 7 429 23 459 9 19 17 39 17 46 0
21 75 128 123 176 60 61 138 104 234 130 101 28 206 22 313 -16 41 -15 85 -27
97 -27 34 0 94 34 117 65 26 36 29 136 5 164 -9 10 -24 41 -33 69 -35 108
-178 164 -414 164 -178 0 -354 -52 -468 -137 -17 -13 -36 -23 -41 -23 -12 0
-23 23 -23 50 0 24 -45 77 -81 95 -27 14 -83 18 -124 8z"/>
<path d="M8310 5739 c-66 -26 -102 -106 -82 -183 10 -41 54 -156 72 -188 6
-10 18 -39 29 -65 34 -86 91 -223 111 -268 11 -24 20 -48 20 -52 0 -4 7 -21
16 -38 9 -16 25 -54 35 -84 10 -30 23 -59 28 -65 4 -6 14 -29 21 -51 7 -22 16
-44 20 -50 4 -5 25 -53 45 -105 21 -52 41 -99 45 -105 4 -5 15 -35 25 -65 10
-30 21 -57 25 -60 15 -12 51 -132 42 -143 -5 -7 -15 -30 -22 -52 -7 -22 -16
-44 -20 -50 -4 -5 -15 -32 -25 -60 -10 -27 -22 -54 -26 -60 -3 -5 -24 -53 -44
-105 -21 -52 -41 -99 -45 -105 -4 -5 -13 -28 -20 -50 -7 -22 -17 -45 -21 -51
-17 -21 -49 -127 -49 -161 0 -79 52 -142 124 -150 58 -7 87 1 126 33 26 22 90
136 90 161 0 5 8 24 19 43 10 19 22 46 26 60 4 14 17 48 30 75 28 65 52 122
115 275 28 69 60 143 70 166 11 23 20 45 20 49 0 4 9 26 20 49 28 59 77 177
85 206 4 14 11 30 15 35 5 6 24 51 43 100 20 50 42 104 51 120 9 17 16 33 16
37 0 4 11 32 25 62 14 30 25 58 25 62 0 4 9 25 20 48 10 23 33 75 50 116 17
41 38 89 46 107 8 17 14 34 14 38 0 6 36 91 81 192 11 23 19 46 19 50 0 5 10
26 22 48 41 76 22 169 -44 218 -33 25 -117 34 -158 17 -32 -13 -73 -61 -85
-100 -4 -14 -18 -48 -31 -77 -13 -28 -24 -55 -24 -60 0 -5 -8 -24 -19 -43 -10
-19 -22 -46 -26 -60 -7 -25 -38 -95 -76 -176 -10 -23 -19 -44 -19 -48 0 -10
-57 -144 -75 -178 -8 -14 -15 -32 -15 -38 0 -7 -9 -31 -20 -54 -16 -35 -32
-72 -90 -213 -10 -23 -30 -32 -30 -13 0 5 -11 34 -25 64 -14 30 -25 58 -25 62
0 4 -9 25 -20 48 -10 23 -33 75 -50 116 -17 41 -40 93 -50 116 -11 23 -20 44
-20 48 0 4 -11 32 -25 62 -14 30 -25 58 -25 62 0 4 -7 21 -16 37 -9 17 -31 70
-50 118 -19 49 -39 96 -44 105 -4 9 -25 53 -45 97 -38 84 -58 109 -100 125
-33 12 -92 12 -125 -1z"/>
</g>
</svg>
